<svg id="Layer_1" data-name="Layer 1" xmlns="http://www.w3.org/2000/svg" xmlns:xlink="http://www.w3.org/1999/xlink" viewBox="0 0 843.1 328.12"><defs><style>.cls-1,.cls-3{fill:#221e1f;}.cls-2,.cls-3,.cls-4{fill-rule:evenodd;}.cls-2{fill:url(#radial-gradient);}.cls-4,.cls-6{fill:#eeb111;}.cls-5{fill:#fff;}</style><radialGradient id="radial-gradient" cx="111" cy="154.04" r="73.14" gradientUnits="userSpaceOnUse"><stop offset="0" stop-color="#fff453"/><stop offset="0.01" stop-color="#fff251"/><stop offset="0.26" stop-color="#f7d635"/><stop offset="0.51" stop-color="#f2c121"/><stop offset="0.76" stop-color="#efb515"/><stop offset="1" stop-color="#eeb111"/></radialGradient></defs><title>Logo</title><path class="cls-1" d="M391,152.81a84,84,0,0,0-28-29.34q-11.28-7.22-36.11-17.38c-17-7-31.28-15.9-49.19-19.63a90.34,90.34,0,0,0-17.6-2.26q-23.47,0-23.47,22.57,4.06,14.44,20.76,13.54h2.26a18.76,18.76,0,0,0-5.42,6.32,635.63,635.63,0,0,0-3.61,66.65q0,63.08,15.35,137.36,37-2.7,37-23,0-8.58-9-29.79c-5-11.77-8.58-25.39-7.22-40.62,35.06,2.29,74.74-20,90.27-37,10.55-11.56,18.51-20,18.51-31.14A33.2,33.2,0,0,0,391,152.81Zm-65,41.07c-11.69,4.78-26.06,6.62-38.37,8.58-0.32-.32-3.52-11.71-1.81-23l8.58-46.94q41.07,12.64,58.22,35.66Q347.68,185.76,326,193.88Z" transform="translate(-0.4 -2.51)"/><path class="cls-1" d="M515.29,242.62c13.05,5.47,46.07,5,39.26-18.05q-13.54-16.7-26.85-57.32c-8.87-27.08-13.61-40.37-22.94-51.5-10.23-3.83-23,3.8-29.64,12.24q-6.34,8.1-14.44,25.28-8.13,18.5-13.54,25.72-9.93-26.62-9.48-71.31,0.91-65-6.32-105.16c-36.23,2.28-25.28,44.38-25.28,68.15q0,8.12.68,23.69t0.68,23.69v20.31q9.93,74,20.31,105.16c17.5,4.43,29.79-18.36,38.82-33.4q17.15-29.34,25.27-44.23,6.77,14,12.64,37.91,7.68,29.79,10.83,38.82h0Z" transform="translate(-0.4 -2.51)"/><path class="cls-1" d="M667.69,76.86q-13.09-16.25-32-16.25A49.23,49.23,0,0,0,623,62.41q-23.47,27.53-33,38.82Q553.5,146.36,553.5,178q0,32.5,20.76,52.81a82,82,0,0,0,27.53,5q37.46,0,69.51-33.85,23-18.5,23-56.42C694.32,114.9,686.92,100.37,667.69,76.86ZM628.42,193.31q-1.36.9-10.83,3.61a37,37,0,0,1-10.83,1.8,17.63,17.63,0,0,1-10.38-3.16A47.11,47.11,0,0,1,591,173.44q0-26.18,28-61.38,6.32-11.28,12.18-11.29,3.61,0,9,5.42,14,20.31,19.41,31.59Q659.11,175.7,628.42,193.31Z" transform="translate(-0.4 -2.51)"/><path class="cls-1" d="M808.38,227.28c24.93-8.73,37.47.48,34.76-28q-1.36-11.73-9.48-14-61.38-18.51-85.3-41.07,6.32-14,25.27-17.6c24.73-4.66,52,4.49,52.28-23.45,0.12-12.54-2.38-14.92-24.29-14.92q-52.81,0-89.37,36.56a57.21,57.21,0,0,0-2.71,16.25q0,25.28,27.08,39.72,31.6,16.25,47.84,23.92-14.44,7.23-40.17,8.58H702.77c-4.17,23.36,34.3,27.53,52.36,27.53Q769.11,240.82,808.38,227.28Z" transform="translate(-0.4 -2.51)"/><path class="cls-2" d="M67.93,82.51C51.2,81.19,46,89.44,46.1,102L36.6,202.17c1.22,19.69,14.69,24.9,33.74,23.54h30.91c-56.84-32.25-6.62-99.82,13.16-111.14-1.73,37.06,64.35,78.61,9,111.14h21.13c24.33,0.62,42.88-3.42,40.7-24.11l-8.9-101.33C175,84.76,167.56,82.87,153,82.18Z" transform="translate(-0.4 -2.51)"/><path class="cls-3" d="M71.34,235.92h79c6.72,0,12.23,4.42,12.23,9.82v14.44H59.11V245.74C59.11,240.34,64.61,235.92,71.34,235.92Z" transform="translate(-0.4 -2.51)"/><path class="cls-3" d="M42.24,270.83H177.3a25.3,25.3,0,0,1,15.87,6,26.55,26.55,0,0,1,9.26,15L204.67,303l0.29,1.44c5.08,1.23,9,2.93,10.3,4.84l2.56,3.65c0.88,1.26,1.77,2.53,2.68,3.82H0.4L2.68,313l2.17-3.65c1.15-1.94,4.88-3.67,10-4.89l0.88-.21,0.2-1.18q1-5.68,1.91-11.21a25.4,25.4,0,0,1,8.74-15A24.61,24.61,0,0,1,42.24,270.83Z" transform="translate(-0.4 -2.51)"/><path class="cls-4" d="M114.17,174.71c-3.88,14.18,24.69,30.49-.82,50.36C93.61,209.32,103.59,184.2,114.17,174.71Z" transform="translate(-0.4 -2.51)"/><path class="cls-1" d="M164.14,61.93V43.58c0-.1-1.69-6.6-16.79-7.95C147.27,18.9,136.39,5.36,123,5.36H100.31C86.85,5.36,75.94,19,75.94,35.8c0,0,0,0,0,0C65,37.4,60.37,40.65,59.58,43.29a2.76,2.76,0,0,0,0,.29v18.6c-15.62,1.68-25.43,9.08-25.43,10.47a1.56,1.56,0,1,0,0,.27H189.52a1.43,1.43,0,1,0,0-.27C189.56,71.26,179.75,63.61,164.14,61.93Z" transform="translate(-0.4 -2.51)"/><path class="cls-5" d="M90.29,34.29h45.6c1,0,2.05.07,3.07,0.12,0-.3,0-0.6,0-0.91,0-11.42-8.36-20.67-18.66-20.67H103c-10.31,0-18.66,9.26-18.66,20.67,0,0.37,0,.72,0,1.08C86.3,34.41,88.27,34.29,90.29,34.29Z" transform="translate(-0.4 -2.51)"/><path class="cls-6" d="M351.43,302.68l6.06,0.84q-1.86,13.26-13,13.25-7.25,0-10.8-5.56t-3.55-14.88q0-10.05,3.75-15.41t10.83-5.36q10.94,0,12.83,13.57l-6.12.9q-1-9-6.69-9-7.61,0-7.62,15.7,0,14.63,7.62,14.63a5.11,5.11,0,0,0,4.55-2.23A15.91,15.91,0,0,0,351.43,302.68Z" transform="translate(-0.4 -2.51)"/><path class="cls-6" d="M392.59,296.16q0,10.2-3.64,15.41t-10.58,5.21q-7,0-10.66-5.2T364,296.16q0-10.14,3.67-15.37t10.66-5.23q6.9,0,10.57,5.2T392.59,296.16Zm-6.9,0q0-7.09-1.65-11.16a6.09,6.09,0,0,0-11.49,0q-1.63,4.08-1.63,11.14a31.36,31.36,0,0,0,1.6,11.08,5.85,5.85,0,0,0,5.85,4.14q4,0,5.65-4T385.68,296.17Z" transform="translate(-0.4 -2.51)"/><path class="cls-6" d="M401.12,276.29h9.76L418.82,305,427,276.29h9.35v39.76h-6.18V282.12l-9.45,33.94H415.9l-9.27-34v34h-5.51V276.29Z" transform="translate(-0.4 -2.51)"/><path class="cls-6" d="M446.18,276.29h9.76L463.87,305,472,276.29h9.35v39.76h-6.17V282.12l-9.45,33.94H461l-9.28-34v34h-5.5V276.29Z" transform="translate(-0.4 -2.51)"/><path class="cls-6" d="M491.09,276.29h6.44V301a30.77,30.77,0,0,0,.44,6.1,5.12,5.12,0,0,0,2,3.12,8.38,8.38,0,0,0,8.11.2,5.1,5.1,0,0,0,2-2.68,25.91,25.91,0,0,0,.58-6.86V276.29h5.92v24.24a37.25,37.25,0,0,1-.83,9,9,9,0,0,1-3.85,5.21,14.07,14.07,0,0,1-8.08,2.07,16.61,16.61,0,0,1-6.83-1.3,8.88,8.88,0,0,1-4.38-4.19q-1.49-2.9-1.49-10.33V276.29Z" transform="translate(-0.4 -2.51)"/><path class="cls-6" d="M526.08,276.29h7.75L546.9,305V276.29h5.51v39.76h-6.15l-14.68-31.84v31.84h-5.51V276.29Z" transform="translate(-0.4 -2.51)"/><path class="cls-6" d="M562.2,276.29h6.58v39.76H562.2V276.29Z" transform="translate(-0.4 -2.51)"/><path class="cls-6" d="M574,276.29h24.3v5.59h-8.89v34.17h-6.58V281.88H574v-5.59Z" transform="translate(-0.4 -2.51)"/><path class="cls-6" d="M601.66,276.29h7.15l7.32,16.58,7.43-16.58h6.3l-11,23v16.81h-6.58V299.24Z" transform="translate(-0.4 -2.51)"/><path class="cls-6" d="M667.63,302.68l6.06,0.84q-1.86,13.26-13,13.25-7.25,0-10.8-5.56t-3.55-14.88q0-10.05,3.76-15.41t10.82-5.36q10.94,0,12.83,13.57l-6.12.9q-1-9-6.69-9-7.61,0-7.62,15.7,0,14.63,7.62,14.63a5.11,5.11,0,0,0,4.55-2.23A15.93,15.93,0,0,0,667.63,302.68Z" transform="translate(-0.4 -2.51)"/><path class="cls-6" d="M681.53,276.29h6.58v16.49h11.71V276.29h6.58v39.76h-6.58V298.34H688.11v17.71h-6.58V276.29Z" transform="translate(-0.4 -2.51)"/><path class="cls-6" d="M716.13,276.29h6.44V301a30.68,30.68,0,0,0,.44,6.1,5.11,5.11,0,0,0,2,3.12,8.38,8.38,0,0,0,8.11.2,5.08,5.08,0,0,0,2-2.68,25.83,25.83,0,0,0,.58-6.86V276.29h5.91v24.24a37.21,37.21,0,0,1-.83,9,9,9,0,0,1-3.85,5.21,14.08,14.08,0,0,1-8.08,2.07,16.61,16.61,0,0,1-6.83-1.3,8.89,8.89,0,0,1-4.38-4.19q-1.49-2.9-1.49-10.33V276.29Z" transform="translate(-0.4 -2.51)"/><path class="cls-6" d="M751.32,276.29h12q6.5,0,9.58,2.94t3.09,8.45q0,7.34-6.09,10.4l7.55,18h-7.14l-6.18-16.6H757.9v16.6h-6.58V276.29Zm6.58,5.1v13h5q3.38,0,5-1.87a7.25,7.25,0,0,0,1.59-4.86q0-6.23-6.5-6.23H757.9Z" transform="translate(-0.4 -2.51)"/><path class="cls-6" d="M804.65,302.68l6.06,0.84q-1.86,13.26-13,13.25-7.25,0-10.8-5.56t-3.55-14.88q0-10.05,3.76-15.41t10.82-5.36q10.94,0,12.83,13.57l-6.12.9q-1-9-6.69-9-7.61,0-7.62,15.7,0,14.63,7.62,14.63a5.11,5.11,0,0,0,4.55-2.23A16,16,0,0,0,804.65,302.68Z" transform="translate(-0.4 -2.51)"/><path class="cls-6" d="M818.54,276.29h6.58v16.49h11.71V276.29h6.58v39.76h-6.58V298.34H825.13v17.71h-6.58V276.29Z" transform="translate(-0.4 -2.51)"/></svg>